<?xml version="1.0" standalone="no"?>
<!DOCTYPE svg PUBLIC "-//W3C//DTD SVG 20010904//EN"
 "http://www.w3.org/TR/2001/REC-SVG-20010904/DTD/svg10.dtd">
<svg version="1.0" xmlns="http://www.w3.org/2000/svg"
 width="290.000000pt" height="290.000000pt" viewBox="0 0 290.000000 290.000000"
 preserveAspectRatio="xMidYMid meet">
<metadata>
Created by potrace 1.11, written by Peter Selinger 2001-2013
</metadata>
<g transform="translate(0.000000,290.000000) scale(0.100000,-0.100000)"
fill="#000000" stroke="none">
<path d="M5 2448 c-3 -7 -4 -233 -3 -503 l3 -490 718 -3 717 -2 0 505 0 505
-715 0 c-563 0 -717 -3 -720 -12z m92 -701 c-1 -111 -2 -17 -2 208 0 226 1
316 2 202 2 -115 2 -299 0 -410z m1251 61 c0 -34 -3 -46 -9 -37 -12 19 -12
102 0 94 6 -3 10 -29 9 -57z m-42 -120 c-3 -68 -5 -126 -6 -130 0 -12 -520
-10 -520 2 0 25 25 57 53 69 18 7 93 15 167 18 74 3 140 9 145 14 6 4 30 11
53 15 61 10 88 35 96 89 13 82 18 47 12 -77z"/>
<path d="M1462 1958 l3 -503 718 -3 717 -2 0 505 0 505 -720 0 -720 0 2 -502z
m572 305 c-4 -28 -20 -53 -56 -92 -27 -29 -47 -55 -44 -58 2 -3 29 2 59 11 30
9 87 16 125 16 81 0 99 11 135 80 22 42 57 66 57 39 0 -6 7 -17 15 -23 17 -12
23 -41 24 -105 1 -38 3 -42 17 -31 13 11 16 10 21 -9 4 -15 11 -20 21 -16 10
4 33 -11 64 -42 48 -47 61 -70 33 -60 -11 5 -9 -3 6 -33 11 -21 27 -44 35 -51
8 -6 14 -20 14 -30 0 -10 5 -21 10 -24 6 -3 10 -11 10 -18 0 -8 -3 -8 -12 1
-7 7 -15 12 -18 12 -11 0 14 -83 33 -111 23 -34 37 -84 37 -131 l0 -38 -220 0
c-211 0 -220 1 -220 19 0 20 -25 51 -40 51 -11 0 -50 -40 -50 -51 0 -4 8 -10
18 -12 9 -3 -5 -5 -31 -6 -29 -1 -46 3 -42 9 11 18 -15 51 -38 48 -17 -2 -22
-10 -22 -30 l1 -28 -213 0 -213 0 0 135 c0 101 3 135 13 136 10 0 10 2 0 6
-22 8 -16 61 7 68 11 4 29 24 40 45 11 21 24 41 30 45 5 3 10 15 10 26 0 11 7
36 16 57 l15 37 18 -23 c17 -24 102 -49 122 -36 12 7 12 34 0 34 -4 0 -21 18
-36 39 -22 32 -26 46 -20 73 12 56 37 108 51 108 16 0 36 -34 26 -45 -10 -12
20 6 40 23 10 8 24 12 32 9 13 -5 32 -77 27 -104 -1 -7 3 -13 9 -13 5 0 10 12
10 28 0 32 25 72 44 72 8 0 16 10 19 22 10 36 18 14 11 -29z m-477 -275 c-2
-13 -4 -3 -4 22 0 25 2 35 4 23 2 -13 2 -33 0 -45z m30 -50 c-3 -8 -6 -5 -6 6
-1 11 2 17 5 13 3 -3 4 -12 1 -19z"/>
<path d="M1751 2013 c-13 -3 -31 -11 -39 -19 -8 -9 -21 -13 -28 -10 -8 3 -11
0 -7 -10 6 -16 -15 -47 -27 -39 -4 3 -13 -2 -20 -10 -11 -13 -9 -15 11 -13 18
2 25 -2 27 -19 2 -13 10 -23 18 -23 22 0 14 -44 -9 -48 -10 -2 -20 4 -24 15
-7 18 -22 33 -35 33 -4 0 -6 -15 -4 -32 3 -39 35 -105 65 -132 12 -11 21 -24
21 -30 0 -12 77 -16 95 -5 6 4 26 9 46 13 50 9 90 54 94 104 2 22 8 48 13 59
15 27 3 73 -19 73 -12 0 -19 9 -21 27 -6 52 -75 81 -157 66z m44 -93 c3 -6 -1
-13 -10 -16 -19 -8 -30 0 -20 15 8 14 22 14 30 1z m145 -35 c16 -19 -5 -49
-28 -40 -10 3 -12 0 -9 -10 6 -14 -16 -45 -32 -45 -16 0 -31 28 -25 44 3 9 15
16 25 16 12 0 19 7 19 18 0 34 28 43 50 17z m-187 -69 c7 -19 -1 -26 -30 -26
-22 0 -31 19 -16 33 11 12 41 7 46 -7z m65 -8 c-3 -7 -13 -13 -23 -13 -10 0
-20 6 -22 13 -3 7 5 12 22 12 17 0 25 -5 23 -12z"/>
<path d="M2308 2004 c-12 -12 -21 -14 -34 -6 -13 7 -25 5 -46 -11 -15 -11 -28
-25 -28 -29 0 -5 -9 -28 -19 -52 -23 -49 -18 -84 12 -88 28 -4 34 -28 9 -35
-20 -5 -20 -6 -3 -36 27 -48 94 -79 161 -75 95 7 155 71 152 164 -2 70 -23
109 -80 145 -55 35 -69 36 -68 8 1 -25 -13 -33 -34 -19 -12 8 -13 13 -2 30 15
24 3 27 -20 4z m100 -77 c2 -9 -4 -20 -13 -23 -20 -8 -50 19 -40 36 10 17 49
8 53 -13z m-138 -32 c0 -8 -7 -15 -15 -15 -8 0 -15 7 -15 15 0 8 7 15 15 15 8
0 15 -7 15 -15z m114 -11 c22 -8 20 -41 -3 -49 -10 -3 -21 -15 -24 -26 -4 -15
-12 -20 -29 -17 -31 4 -32 42 0 46 12 2 20 8 16 13 -3 6 0 16 6 24 14 17 13
17 34 9z m-104 -84 c0 -5 -11 -10 -25 -10 -14 0 -25 5 -25 10 0 6 11 10 25 10
14 0 25 -4 25 -10z"/>
<path d="M2441 1674 c-43 -30 -95 -40 -146 -26 -35 9 -38 9 -21 -4 43 -31 173
-8 196 36 13 24 13 24 -29 -6z"/>
<path d="M7 1423 c-4 -3 -7 -231 -7 -505 l0 -498 720 0 720 0 0 505 0 505
-713 0 c-393 0 -717 -3 -720 -7z m90 -706 c-1 -111 -2 -20 -2 203 0 223 1 314
2 202 2 -111 2 -293 0 -405z m353 594 c0 -6 -4 -13 -10 -16 -5 -3 -10 1 -10 9
0 9 5 16 10 16 6 0 10 -4 10 -9z m900 -56 c0 -45 -4 -65 -12 -65 -17 -1 -49
-28 -76 -67 -19 -27 -30 -32 -70 -35 l-47 -3 0 -122 -1 -123 28 0 c26 0 28 3
29 40 1 22 3 45 4 50 1 6 4 22 5 38 2 21 3 23 7 7 3 -11 12 -29 19 -40 8 -11
14 -32 14 -48 0 -23 4 -28 16 -23 9 3 28 9 42 13 15 3 30 11 34 17 5 7 8 5 8
-5 0 -9 -7 -20 -16 -23 -8 -3 -12 -11 -9 -16 4 -6 8 -24 10 -40 4 -27 2 -28
-15 -18 -30 19 -32 6 -9 -63 17 -52 19 -70 10 -95 -6 -17 -11 -40 -11 -53 0
-12 -4 -19 -10 -16 -5 3 -10 35 -10 71 0 41 -4 63 -10 59 -5 -3 -10 -17 -10
-31 0 -34 -17 -30 -25 6 -5 23 -12 30 -30 30 -12 0 -28 -7 -35 -15 -10 -12
-10 -15 4 -15 9 0 16 -7 16 -15 0 -8 -7 -15 -15 -15 -22 0 -65 22 -60 31 3 4
1 10 -5 14 -5 3 -10 1 -10 -4 0 -17 -18 -13 -41 10 -11 11 -23 18 -26 15 -3
-3 -15 0 -26 6 -17 9 -19 8 -13 -8 11 -28 17 -62 23 -128 7 -80 -13 -65 -22
16 -7 62 -20 92 -35 83 -4 -2 -5 -39 -3 -82 3 -61 2 -74 -7 -60 -6 10 -14 44
-17 75 -6 56 -18 77 -37 65 -5 -4 -53 -7 -105 -7 -53 -1 -104 -5 -113 -10 -11
-5 -18 -4 -18 2 0 22 94 47 177 47 101 0 96 13 -7 17 l-75 3 45 15 c25 8 75
15 113 15 65 0 83 7 51 19 -24 9 -144 -12 -190 -34 -22 -11 -45 -20 -51 -20
-6 0 -16 -7 -23 -15 -15 -18 -82 -15 -88 4 -3 8 3 8 23 1 30 -11 49 -4 84 34
28 30 24 32 -26 11 -84 -35 -26 13 82 68 28 14 69 30 92 36 l41 11 7 78 c3 42
7 93 8 112 l2 35 -109 10 c-121 12 -106 19 -136 -62 -7 -18 -19 -33 -26 -33
-17 0 -21 -22 -27 -125 -5 -81 -25 -153 -35 -126 -5 16 16 490 24 534 l6 27
359 0 359 0 0 -65z m-790 -38 c0 -18 -7 -42 -15 -53 -13 -18 -14 -17 -15 18 0
20 3 43 6 52 10 27 24 18 24 -17z m-125 -94 c-3 -43 -7 -122 -11 -175 -3 -54
-10 -98 -15 -98 -5 0 -9 3 -9 8 3 89 21 312 26 325 12 32 14 17 9 -60z m667
-472 c35 -16 79 -32 100 -35 35 -6 57 -29 38 -41 -5 -3 -28 3 -52 14 -24 10
-63 26 -88 36 -49 18 -70 32 -70 46 0 13 2 12 72 -20z m-200 -15 c4 -6 8 -21
8 -33 0 -21 -5 -23 -49 -23 -41 0 -51 3 -56 21 -6 19 -8 19 -19 3 -15 -20 -43
-13 -53 12 -8 22 11 31 64 32 25 1 48 3 50 6 7 7 47 -6 55 -18z m-262 -1 c0
-8 -7 -15 -15 -15 -16 0 -20 12 -8 23 11 12 23 8 23 -8z m528 -62 c91 -44 87
-42 80 -48 -9 -9 -178 63 -178 77 0 14 19 9 98 -29z m182 -5 c0 -16 -3 -19
-11 -11 -6 6 -8 16 -5 22 11 17 16 13 16 -11z m-260 -9 c17 -30 6 -34 -14 -4
-9 14 -12 25 -7 25 6 0 15 -9 21 -21z"/>
<path d="M960 835 c0 -8 7 -15 15 -15 8 0 15 7 15 15 0 8 -7 15 -15 15 -8 0
-15 -7 -15 -15z"/>
<path d="M1080 838 c-45 -13 -59 -26 -40 -38 22 -14 28 -12 34 8 4 10 18 23
34 29 34 14 18 14 -28 1z"/>
<path d="M1275 840 c-3 -6 1 -7 9 -4 18 7 21 14 7 14 -6 0 -13 -4 -16 -10z"/>
<path d="M1295 820 c-3 -5 1 -10 10 -10 9 0 13 5 10 10 -3 6 -8 10 -10 10 -2
0 -7 -4 -10 -10z"/>
<path d="M900 810 c0 -5 7 -10 16 -10 8 0 12 5 9 10 -3 6 -10 10 -16 10 -5 0
-9 -4 -9 -10z"/>
<path d="M1150 813 c-36 -14 -90 -55 -85 -63 11 -17 32 -11 61 19 16 15 38 33
49 39 21 12 3 15 -25 5z"/>
<path d="M991 791 c-10 -7 -10 -10 -1 -16 6 -4 16 -3 22 3 13 13 -4 23 -21 13z"/>
<path d="M1020 755 c0 -3 7 -14 16 -23 15 -14 16 -14 13 3 -4 17 -29 35 -29
20z"/>
<path d="M954 714 c3 -9 6 -18 6 -20 0 -13 19 -1 23 16 4 15 0 20 -15 20 -14
0 -18 -5 -14 -16z"/>
<path d="M1467 1423 c-4 -3 -7 -231 -7 -505 l0 -498 720 0 720 0 -2 503 -3
502 -711 3 c-391 1 -714 -1 -717 -5z m467 -118 c-10 -8 -24 -15 -30 -15 -14 0
-54 -73 -54 -99 0 -39 35 -48 202 -55 167 -6 183 -4 198 24 18 33 -31 130 -66
130 -6 0 -14 7 -18 15 -5 13 23 15 209 15 200 0 215 -1 215 -18 0 -10 -4 -22
-9 -28 -13 -14 -22 -74 -10 -74 6 0 6 -6 0 -18 -6 -10 -8 -28 -5 -39 6 -22
-20 -83 -36 -83 -5 0 -11 -10 -15 -22 -23 -83 -67 -128 -117 -120 -13 3 -18
-4 -18 -22 0 -14 -5 -26 -11 -26 -6 0 -27 -18 -46 -40 -20 -22 -40 -40 -45
-40 -5 0 -17 -9 -26 -19 -23 -26 -137 -40 -287 -34 -112 4 -123 6 -166 34 -25
16 -58 29 -73 29 -17 0 -41 13 -64 35 -31 28 -38 32 -45 19 -5 -9 -6 -27 -2
-42 13 -48 22 -142 13 -142 -4 0 -5 -8 -1 -17 3 -11 -2 -7 -13 7 -10 14 -22
52 -26 85 -26 206 -37 345 -38 453 l0 122 202 0 c180 0 200 -2 182 -15z m825
-11 c14 14 28 26 33 26 4 0 8 -88 8 -195 0 -163 -2 -195 -14 -195 -8 0 -18 -9
-21 -20 -3 -11 -11 -20 -16 -20 -5 0 -9 9 -9 20 0 15 -7 20 -29 20 -54 0 -61
8 -61 66 0 30 4 62 10 72 23 41 60 175 54 197 -3 14 -3 33 1 42 7 15 9 13 14
-10 l6 -29 24 26z m-41 -414 c6 0 16 -9 22 -20 6 -11 19 -20 30 -20 10 0 22
-4 25 -10 3 -5 0 -10 -8 -10 -21 0 -77 30 -77 41 0 5 -13 17 -30 28 -16 10
-27 21 -23 24 3 4 16 -2 28 -13 12 -11 26 -20 33 -20z m-47 -17 c12 -15 12
-16 -4 -10 -10 4 -27 7 -38 7 -10 0 -19 5 -19 10 0 16 47 11 61 -7z m49 -43
c0 -5 -4 -10 -10 -10 -5 0 -10 5 -10 10 0 6 5 10 10 10 6 0 10 -4 10 -10z
m-1140 -145 c12 -148 12 -155 1 -155 -14 0 -31 109 -31 204 0 128 18 99 30
-49z m1192 113 c-9 -9 -15 -9 -24 0 -9 9 -7 12 12 12 19 0 21 -3 12 -12z
m-172 -48 c0 -5 -2 -10 -4 -10 -3 0 -8 5 -11 10 -3 6 -1 10 4 10 6 0 11 -4 11
-10z m-3 -112 c-2 -18 -4 -6 -4 27 0 33 2 48 4 33 2 -15 2 -42 0 -60z"/>
<path d="M1970 1030 c8 -5 25 -10 37 -10 12 0 28 -7 37 -15 17 -17 91 -21 81
-4 -4 6 1 17 11 24 17 13 7 14 -81 15 -68 0 -95 -3 -85 -10z"/>
</g>
</svg>
