<?xml version="1.0" standalone="no"?>
<!DOCTYPE svg PUBLIC "-//W3C//DTD SVG 20010904//EN"
 "http://www.w3.org/TR/2001/REC-SVG-20010904/DTD/svg10.dtd">
<svg version="1.0" xmlns="http://www.w3.org/2000/svg"
 width="288.000000pt" height="288.000000pt" viewBox="0 0 288.000000 288.000000"
 preserveAspectRatio="xMidYMid meet">
<metadata>
Created by potrace 1.11, written by Peter Selinger 2001-2013
</metadata>
<g transform="translate(0.000000,288.000000) scale(0.100000,-0.100000)"
fill="#000000" stroke="none">
<path d="M1641 2664 c-23 -42 -27 -45 -55 -40 -77 15 -250 18 -323 6 -82 -13
-211 -52 -255 -78 -22 -13 -35 -13 -83 -4 -32 7 -61 9 -66 6 -5 -2 -18 -37
-30 -77 -11 -40 -45 -121 -74 -182 -30 -60 -64 -146 -75 -190 -25 -94 -113
-368 -200 -620 -34 -99 -64 -187 -65 -195 -2 -8 -4 -15 -4 -16 -1 0 -37 -103
-80 -230 -72 -209 -165 -454 -285 -753 -43 -106 -46 -121 -46 -203 l0 -88 765
0 c506 0 765 3 765 10 0 6 -27 49 -59 98 -111 164 -161 254 -161 287 0 26 22
61 109 173 l109 141 6 -52 c3 -29 7 -188 8 -354 l1 -303 204 0 c156 0 203 3
203 13 0 6 -7 48 -15 92 -7 44 -16 96 -20 115 -3 19 -8 49 -11 65 -3 17 -7 41
-9 55 -2 14 -13 90 -25 170 -11 80 -24 208 -27 285 -4 98 -11 147 -21 163 -20
30 -10 127 19 190 28 62 37 193 17 242 -28 66 -63 97 -118 105 -44 6 -53 12
-78 47 -15 23 -37 52 -49 65 -13 13 -23 34 -23 45 0 18 10 11 51 -35 50 -57
89 -74 89 -39 0 9 -18 46 -40 80 l-41 64 72 85 c40 47 84 108 99 134 l27 49
21 -92 c12 -51 60 -250 107 -442 47 -192 88 -363 91 -380 2 -17 55 -233 115
-481 61 -247 119 -481 128 -520 l17 -70 277 -3 277 -2 0 359 0 359 -46 83
c-26 46 -59 102 -74 124 -24 35 -131 238 -392 745 -44 85 -93 178 -108 205
-31 56 -271 524 -307 597 -46 95 -122 158 -191 158 -38 0 -43 7 -29 37 13 28
-1 43 -43 43 -20 0 -30 -10 -49 -46z m-444 -1084 c51 -23 52 -23 38 -50 -34
-65 -145 -140 -239 -160 -74 -15 -100 -42 -120 -123 l-15 -62 4 50 c5 55 7 75
31 285 9 80 17 146 18 147 1 1 26 -29 56 -67 74 -95 83 -93 78 18 l-4 87 51
-51 c28 -28 74 -61 102 -74z"/>
</g>
</svg>
